v -0.9 -1.0 0.0
v 0.9 -1.0 0.0
v 0.9 -1.0 0.3
v -0.9 -1.0 0.3
v -0.9 -0.98 0.0
v -0.9 -0.98 0.3
v 0.9 -0.98 0.3
v 0.9 -0.98 0.0
v -1.0 -0.98 -0.6
v -1.0 -0.98 -0.1
v -1.0 -0.9 -0.1
v -1.0 -0.9 -0.6
v -0.98 -0.9 -0.1
v -0.98 -0.9 -0.6
v -0.98 -0.98 -0.6
v 1.0 -1.0 -0.1
v 1.0 -0.98 -0.1
v 1.0 -0.98 0.0
v 1.0 -1.0 0.0
v 0.98 -1.0 -0.1
v 0.98 -1.0 0.0
v -1.0 0.9 -0.6
v -1.0 0.9 -0.1
v -1.0 0.98 -0.1
v -1.0 0.98 -0.6
v -0.98 0.9 -0.6
v -0.98 0.9 -0.1
v -0.98 0.98 -0.6
v 1.0 0.98 -0.1
v 1.0 1.0 -0.1
v 1.0 1.0 0.0
v 1.0 0.98 0.0
v 0.98 1.0 -0.1
v 0.98 1.0 0.0
v 1.0 -0.9 -0.1
v 1.0 0.9 -0.1
v 1.0 0.9 0.0
v 1.0 -0.9 0.0
v 0.98 -0.9 -0.1
v 0.98 0.9 -0.1
v 0.9 -0.9 -0.1
v 0.9 0.9 -0.1
v 0.9 -0.9 0.0
v 0.98 -0.9 0.0
v 0.98 0.9 0.0
v 0.9 0.9 0.0
v 0.9 1.0 -0.1
v 0.9 1.0 0.0
v -0.98 0.98 0.0
v -0.9 0.98 0.0
v -0.9 0.98 0.3
v -0.98 0.98 0.3
v -0.98 1.0 0.0
v -0.98 1.0 0.3
v -0.9 1.0 0.3
v -0.9 1.0 0.0
v -0.9 0.9 -0.6
v -0.9 0.98 -0.6
v -0.9 0.98 -0.1
v -0.9 0.9 -0.1
v -1.0 -1.0 -0.1
v -1.0 -1.0 0.0
v -1.0 -0.98 0.0
v -0.98 -1.0 -0.1
v -0.98 -1.0 0.0
v 0.98 -0.98 0.0
v 0.98 -0.98 0.3
v 0.98 -0.9 0.3
v 1.0 -0.9 0.3
v 1.0 -0.98 0.3
v 0.9 0.98 0.0
v 0.9 0.98 0.3
v 0.9 1.0 0.3
v -1.0 -0.9 0.0
v -1.0 0.9 0.0
v -0.9 -1.0 -0.1
v 0.98 0.9 0.3
v 0.98 0.98 0.3
v 0.98 0.98 0.0
v 1.0 0.98 0.3
v 1.0 0.9 0.3
v -0.9 -0.98 -0.6
v -0.9 -0.9 -0.6
v -0.9 -0.9 -0.1
v -0.9 -0.98 -0.1
v -1.0 0.98 0.0
v -1.0 1.0 0.0
v -1.0 1.0 -0.1
v -0.98 1.0 -0.1
v 0.9 -1.0 -0.6
v 0.9 -1.0 -0.1
v 0.9 -0.98 -0.1
v 0.9 -0.98 -0.6
v 0.98 -1.0 -0.6
v 0.98 -0.98 -0.6
v 1.0 -1.0 -0.6
v 1.0 -0.98 -0.6
v -0.9 -0.9 0.0
v -0.9 0.9 0.0
v -1.0 -0.98 0.3
v -1.0 -0.9 0.3
v -0.98 -0.98 0.0
v -0.98 -0.9 0.0
v -0.98 -0.9 0.3
v -0.98 -0.98 0.3
v 1.0 0.98 -0.6
v 1.0 1.0 -0.6
v 0.98 1.0 -0.6
v 0.98 0.98 -0.6
v -1.0 0.9 0.3
v -1.0 0.98 0.3
v -0.98 0.9 0.0
v -0.98 0.9 0.3
v -0.9 1.0 -0.1
v 0.9 0.98 -0.6
v 0.9 0.98 -0.1
v 0.9 1.0 -0.6
v -1.0 -1.0 -0.6
v -0.98 -1.0 -0.6
v -1.0 1.0 -0.6
v -0.98 1.0 -0.6
v -0.9 -1.0 -0.6
v 0.98 -1.0 0.3
v 1.0 -1.0 0.3
v 1.0 1.0 0.3
v 0.98 1.0 0.3
v 0.9 -0.9 -0.6
v 0.98 -0.9 -0.6
v -0.9 1.0 -0.6
v 0.9 0.9 -0.6
v 0.98 0.9 -0.6
v 1.0 -0.9 -0.6
v -1.0 -1.0 0.3
v -0.98 -1.0 0.3
v 1.0 0.9 -0.6
v -1.0 1.0 0.3
f 1 2 3
f 1 3 4
f 5 6 7
f 5 7 8
f 4 3 7
f 4 7 6
f 9 10 11
f 9 11 12
f 12 11 13
f 12 13 14
f 9 12 14
f 9 14 15
f 16 17 18
f 16 18 19
f 20 16 19
f 20 19 21
f 22 23 24
f 22 24 25
f 22 26 27
f 22 27 23
f 22 25 28
f 22 28 26
f 29 30 31
f 29 31 32
f 33 34 31
f 33 31 30
f 35 36 37
f 35 37 38
f 39 40 36
f 39 36 35
f 41 42 40
f 41 40 39
f 43 44 45
f 43 45 46
f 47 48 34
f 47 34 33
f 49 50 51
f 49 51 52
f 53 54 55
f 53 55 56
f 52 51 55
f 52 55 54
f 57 58 59
f 57 59 60
f 26 57 60
f 26 60 27
f 26 28 58
f 26 58 57
f 61 62 63
f 61 63 10
f 61 64 65
f 61 65 62
f 66 67 68
f 66 68 44
f 18 38 69
f 18 69 70
f 67 70 69
f 67 69 68
f 50 71 72
f 50 72 51
f 56 55 73
f 56 73 48
f 51 72 73
f 51 73 55
f 11 74 75
f 11 75 23
f 11 23 27
f 11 27 13
f 64 76 1
f 64 1 65
f 45 77 78
f 45 78 79
f 37 32 80
f 37 80 81
f 77 81 80
f 77 80 78
f 82 83 84
f 82 84 85
f 14 13 84
f 14 84 83
f 15 14 83
f 15 83 82
f 24 86 87
f 24 87 88
f 88 87 53
f 88 53 89
f 90 91 92
f 90 92 93
f 90 94 20
f 90 20 91
f 90 93 95
f 90 95 94
f 96 97 17
f 96 17 16
f 94 96 16
f 94 16 20
f 94 95 97
f 94 97 96
f 76 91 2
f 76 2 1
f 76 85 92
f 76 92 91
f 84 60 42
f 84 42 41
f 98 43 46
f 98 46 99
f 63 100 101
f 63 101 74
f 102 103 104
f 102 104 105
f 100 105 104
f 100 104 101
f 106 107 30
f 106 30 29
f 108 33 30
f 108 30 107
f 109 108 107
f 109 107 106
f 75 110 111
f 75 111 86
f 112 49 52
f 112 52 113
f 110 113 52
f 110 52 111
f 89 53 56
f 89 56 114
f 8 66 44
f 8 44 43
f 13 27 60
f 13 60 84
f 103 98 99
f 103 99 112
f 91 20 21
f 91 21 2
f 46 45 79
f 46 79 71
f 115 116 47
f 115 47 117
f 117 47 33
f 117 33 108
f 115 117 108
f 115 108 109
f 36 29 32
f 36 32 37
f 118 61 10
f 118 10 9
f 118 119 64
f 118 64 61
f 118 9 15
f 118 15 119
f 17 35 38
f 17 38 18
f 114 56 48
f 114 48 47
f 59 114 47
f 59 47 116
f 25 24 88
f 25 88 120
f 120 88 89
f 120 89 121
f 25 120 121
f 25 121 28
f 122 82 85
f 122 85 76
f 119 122 76
f 119 76 64
f 119 15 82
f 119 82 122
f 2 21 123
f 2 123 3
f 8 7 67
f 8 67 66
f 3 123 67
f 3 67 7
f 19 18 70
f 19 70 124
f 21 19 124
f 21 124 123
f 123 124 70
f 123 70 67
f 10 63 74
f 10 74 11
f 44 68 77
f 44 77 45
f 38 37 81
f 38 81 69
f 68 69 81
f 68 81 77
f 85 84 41
f 85 41 92
f 5 8 43
f 5 43 98
f 23 75 86
f 23 86 24
f 32 31 125
f 32 125 80
f 34 126 125
f 34 125 31
f 78 80 125
f 78 125 126
f 112 99 50
f 112 50 49
f 93 92 41
f 93 41 127
f 127 41 39
f 127 39 128
f 93 127 128
f 93 128 95
f 58 129 114
f 58 114 59
f 121 89 114
f 121 114 129
f 28 121 129
f 28 129 58
f 71 79 78
f 71 78 72
f 48 73 126
f 48 126 34
f 72 78 126
f 72 126 73
f 130 42 116
f 130 116 115
f 130 131 40
f 130 40 42
f 130 115 109
f 130 109 131
f 97 132 35
f 97 35 17
f 128 39 35
f 128 35 132
f 95 128 132
f 95 132 97
f 62 133 100
f 62 100 63
f 62 65 134
f 62 134 133
f 133 134 105
f 133 105 100
f 135 106 29
f 135 29 36
f 131 135 36
f 131 36 40
f 131 109 106
f 131 106 135
f 60 59 116
f 60 116 42
f 99 46 71
f 99 71 50
f 86 111 136
f 86 136 87
f 87 136 54
f 87 54 53
f 111 52 54
f 111 54 136
f 74 101 110
f 74 110 75
f 103 112 113
f 103 113 104
f 101 104 113
f 101 113 110
f 65 1 4
f 65 4 134
f 102 105 6
f 102 6 5
f 134 4 6
f 134 6 105
f 102 5 98
f 102 98 103
