# Subdivided box: 104 vertices, 204 triangular faces.
# Dimensions: 0.070000 x 0.240000 x 0.050000 m.
v -0.035000000 -0.120000000 -0.025000000
v -0.035000000 -0.120000000 -0.008333333
v -0.035000000 -0.120000000 0.008333333
v -0.035000000 -0.120000000 0.025000000
v -0.035000000 -0.085714286 -0.025000000
v -0.035000000 -0.085714286 -0.008333333
v -0.035000000 -0.085714286 0.008333333
v -0.035000000 -0.085714286 0.025000000
v -0.035000000 -0.051428571 -0.025000000
v -0.035000000 -0.051428571 -0.008333333
v -0.035000000 -0.051428571 0.008333333
v -0.035000000 -0.051428571 0.025000000
v -0.035000000 -0.017142857 -0.025000000
v -0.035000000 -0.017142857 -0.008333333
v -0.035000000 -0.017142857 0.008333333
v -0.035000000 -0.017142857 0.025000000
v -0.035000000 0.017142857 -0.025000000
v -0.035000000 0.017142857 -0.008333333
v -0.035000000 0.017142857 0.008333333
v -0.035000000 0.017142857 0.025000000
v -0.035000000 0.051428571 -0.025000000
v -0.035000000 0.051428571 -0.008333333
v -0.035000000 0.051428571 0.008333333
v -0.035000000 0.051428571 0.025000000
v -0.035000000 0.085714286 -0.025000000
v -0.035000000 0.085714286 -0.008333333
v -0.035000000 0.085714286 0.008333333
v -0.035000000 0.085714286 0.025000000
v -0.035000000 0.120000000 -0.025000000
v -0.035000000 0.120000000 -0.008333333
v -0.035000000 0.120000000 0.008333333
v -0.035000000 0.120000000 0.025000000
v -0.011666667 -0.120000000 -0.025000000
v -0.011666667 -0.120000000 -0.008333333
v -0.011666667 -0.120000000 0.008333333
v -0.011666667 -0.120000000 0.025000000
v -0.011666667 -0.085714286 -0.025000000
v -0.011666667 -0.085714286 0.025000000
v -0.011666667 -0.051428571 -0.025000000
v -0.011666667 -0.051428571 0.025000000
v -0.011666667 -0.017142857 -0.025000000
v -0.011666667 -0.017142857 0.025000000
v -0.011666667 0.017142857 -0.025000000
v -0.011666667 0.017142857 0.025000000
v -0.011666667 0.051428571 -0.025000000
v -0.011666667 0.051428571 0.025000000
v -0.011666667 0.085714286 -0.025000000
v -0.011666667 0.085714286 0.025000000
v -0.011666667 0.120000000 -0.025000000
v -0.011666667 0.120000000 -0.008333333
v -0.011666667 0.120000000 0.008333333
v -0.011666667 0.120000000 0.025000000
v 0.011666667 -0.120000000 -0.025000000
v 0.011666667 -0.120000000 -0.008333333
v 0.011666667 -0.120000000 0.008333333
v 0.011666667 -0.120000000 0.025000000
v 0.011666667 -0.085714286 -0.025000000
v 0.011666667 -0.085714286 0.025000000
v 0.011666667 -0.051428571 -0.025000000
v 0.011666667 -0.051428571 0.025000000
v 0.011666667 -0.017142857 -0.025000000
v 0.011666667 -0.017142857 0.025000000
v 0.011666667 0.017142857 -0.025000000
v 0.011666667 0.017142857 0.025000000
v 0.011666667 0.051428571 -0.025000000
v 0.011666667 0.051428571 0.025000000
v 0.011666667 0.085714286 -0.025000000
v 0.011666667 0.085714286 0.025000000
v 0.011666667 0.120000000 -0.025000000
v 0.011666667 0.120000000 -0.008333333
v 0.011666667 0.120000000 0.008333333
v 0.011666667 0.120000000 0.025000000
v 0.035000000 -0.120000000 -0.025000000
v 0.035000000 -0.120000000 -0.008333333
v 0.035000000 -0.120000000 0.008333333
v 0.035000000 -0.120000000 0.025000000
v 0.035000000 -0.085714286 -0.025000000
v 0.035000000 -0.085714286 -0.008333333
v 0.035000000 -0.085714286 0.008333333
v 0.035000000 -0.085714286 0.025000000
v 0.035000000 -0.051428571 -0.025000000
v 0.035000000 -0.051428571 -0.008333333
v 0.035000000 -0.051428571 0.008333333
v 0.035000000 -0.051428571 0.025000000
v 0.035000000 -0.017142857 -0.025000000
v 0.035000000 -0.017142857 -0.008333333
v 0.035000000 -0.017142857 0.008333333
v 0.035000000 -0.017142857 0.025000000
v 0.035000000 0.017142857 -0.025000000
v 0.035000000 0.017142857 -0.008333333
v 0.035000000 0.017142857 0.008333333
v 0.035000000 0.017142857 0.025000000
v 0.035000000 0.051428571 -0.025000000
v 0.035000000 0.051428571 -0.008333333
v 0.035000000 0.051428571 0.008333333
v 0.035000000 0.051428571 0.025000000
v 0.035000000 0.085714286 -0.025000000
v 0.035000000 0.085714286 -0.008333333
v 0.035000000 0.085714286 0.008333333
v 0.035000000 0.085714286 0.025000000
v 0.035000000 0.120000000 -0.025000000
v 0.035000000 0.120000000 -0.008333333
v 0.035000000 0.120000000 0.008333333
v 0.035000000 0.120000000 0.025000000
f 1 5 37
f 1 37 33
f 4 36 38
f 4 38 8
f 5 9 39
f 5 39 37
f 8 38 40
f 8 40 12
f 9 13 41
f 9 41 39
f 12 40 42
f 12 42 16
f 13 17 43
f 13 43 41
f 16 42 44
f 16 44 20
f 17 21 45
f 17 45 43
f 20 44 46
f 20 46 24
f 21 25 47
f 21 47 45
f 24 46 48
f 24 48 28
f 25 29 49
f 25 49 47
f 28 48 52
f 28 52 32
f 33 37 57
f 33 57 53
f 36 56 58
f 36 58 38
f 37 39 59
f 37 59 57
f 38 58 60
f 38 60 40
f 39 41 61
f 39 61 59
f 40 60 62
f 40 62 42
f 41 43 63
f 41 63 61
f 42 62 64
f 42 64 44
f 43 45 65
f 43 65 63
f 44 64 66
f 44 66 46
f 45 47 67
f 45 67 65
f 46 66 68
f 46 68 48
f 47 49 69
f 47 69 67
f 48 68 72
f 48 72 52
f 53 57 77
f 53 77 73
f 56 76 80
f 56 80 58
f 57 59 81
f 57 81 77
f 58 80 84
f 58 84 60
f 59 61 85
f 59 85 81
f 60 84 88
f 60 88 62
f 61 63 89
f 61 89 85
f 62 88 92
f 62 92 64
f 63 65 93
f 63 93 89
f 64 92 96
f 64 96 66
f 65 67 97
f 65 97 93
f 66 96 100
f 66 100 68
f 67 69 101
f 67 101 97
f 68 100 104
f 68 104 72
f 1 33 34
f 1 34 2
f 29 30 50
f 29 50 49
f 2 34 35
f 2 35 3
f 30 31 51
f 30 51 50
f 3 35 36
f 3 36 4
f 31 32 52
f 31 52 51
f 33 53 54
f 33 54 34
f 49 50 70
f 49 70 69
f 34 54 55
f 34 55 35
f 50 51 71
f 50 71 70
f 35 55 56
f 35 56 36
f 51 52 72
f 51 72 71
f 53 73 74
f 53 74 54
f 69 70 102
f 69 102 101
f 54 74 75
f 54 75 55
f 70 71 103
f 70 103 102
f 55 75 76
f 55 76 56
f 71 72 104
f 71 104 103
f 1 2 6
f 1 6 5
f 73 77 78
f 73 78 74
f 2 3 7
f 2 7 6
f 74 78 79
f 74 79 75
f 3 4 8
f 3 8 7
f 75 79 80
f 75 80 76
f 5 6 10
f 5 10 9
f 77 81 82
f 77 82 78
f 6 7 11
f 6 11 10
f 78 82 83
f 78 83 79
f 7 8 12
f 7 12 11
f 79 83 84
f 79 84 80
f 9 10 14
f 9 14 13
f 81 85 86
f 81 86 82
f 10 11 15
f 10 15 14
f 82 86 87
f 82 87 83
f 11 12 16
f 11 16 15
f 83 87 88
f 83 88 84
f 13 14 18
f 13 18 17
f 85 89 90
f 85 90 86
f 14 15 19
f 14 19 18
f 86 90 91
f 86 91 87
f 15 16 20
f 15 20 19
f 87 91 92
f 87 92 88
f 17 18 22
f 17 22 21
f 89 93 94
f 89 94 90
f 18 19 23
f 18 23 22
f 90 94 95
f 90 95 91
f 19 20 24
f 19 24 23
f 91 95 96
f 91 96 92
f 21 22 26
f 21 26 25
f 93 97 98
f 93 98 94
f 22 23 27
f 22 27 26
f 94 98 99
f 94 99 95
f 23 24 28
f 23 28 27
f 95 99 100
f 95 100 96
f 25 26 30
f 25 30 29
f 97 101 102
f 97 102 98
f 26 27 31
f 26 31 30
f 98 102 103
f 98 103 99
f 27 28 32
f 27 32 31
f 99 103 104
f 99 104 100
