# Subdivided box: 104 vertices, 204 triangular faces.
# Dimensions: 0.280000 x 0.070000 x 0.050000 m.
v -0.140000000 -0.035000000 -0.025000000
v -0.140000000 -0.035000000 -0.008333333
v -0.140000000 -0.035000000 0.008333333
v -0.140000000 -0.035000000 0.025000000
v -0.140000000 -0.011666667 -0.025000000
v -0.140000000 -0.011666667 -0.008333333
v -0.140000000 -0.011666667 0.008333333
v -0.140000000 -0.011666667 0.025000000
v -0.140000000 0.011666667 -0.025000000
v -0.140000000 0.011666667 -0.008333333
v -0.140000000 0.011666667 0.008333333
v -0.140000000 0.011666667 0.025000000
v -0.140000000 0.035000000 -0.025000000
v -0.140000000 0.035000000 -0.008333333
v -0.140000000 0.035000000 0.008333333
v -0.140000000 0.035000000 0.025000000
v -0.100000000 -0.035000000 -0.025000000
v -0.100000000 -0.035000000 -0.008333333
v -0.100000000 -0.035000000 0.008333333
v -0.100000000 -0.035000000 0.025000000
v -0.100000000 -0.011666667 -0.025000000
v -0.100000000 -0.011666667 0.025000000
v -0.100000000 0.011666667 -0.025000000
v -0.100000000 0.011666667 0.025000000
v -0.100000000 0.035000000 -0.025000000
v -0.100000000 0.035000000 -0.008333333
v -0.100000000 0.035000000 0.008333333
v -0.100000000 0.035000000 0.025000000
v -0.060000000 -0.035000000 -0.025000000
v -0.060000000 -0.035000000 -0.008333333
v -0.060000000 -0.035000000 0.008333333
v -0.060000000 -0.035000000 0.025000000
v -0.060000000 -0.011666667 -0.025000000
v -0.060000000 -0.011666667 0.025000000
v -0.060000000 0.011666667 -0.025000000
v -0.060000000 0.011666667 0.025000000
v -0.060000000 0.035000000 -0.025000000
v -0.060000000 0.035000000 -0.008333333
v -0.060000000 0.035000000 0.008333333
v -0.060000000 0.035000000 0.025000000
v -0.020000000 -0.035000000 -0.025000000
v -0.020000000 -0.035000000 -0.008333333
v -0.020000000 -0.035000000 0.008333333
v -0.020000000 -0.035000000 0.025000000
v -0.020000000 -0.011666667 -0.025000000
v -0.020000000 -0.011666667 0.025000000
v -0.020000000 0.011666667 -0.025000000
v -0.020000000 0.011666667 0.025000000
v -0.020000000 0.035000000 -0.025000000
v -0.020000000 0.035000000 -0.008333333
v -0.020000000 0.035000000 0.008333333
v -0.020000000 0.035000000 0.025000000
v 0.020000000 -0.035000000 -0.025000000
v 0.020000000 -0.035000000 -0.008333333
v 0.020000000 -0.035000000 0.008333333
v 0.020000000 -0.035000000 0.025000000
v 0.020000000 -0.011666667 -0.025000000
v 0.020000000 -0.011666667 0.025000000
v 0.020000000 0.011666667 -0.025000000
v 0.020000000 0.011666667 0.025000000
v 0.020000000 0.035000000 -0.025000000
v 0.020000000 0.035000000 -0.008333333
v 0.020000000 0.035000000 0.008333333
v 0.020000000 0.035000000 0.025000000
v 0.060000000 -0.035000000 -0.025000000
v 0.060000000 -0.035000000 -0.008333333
v 0.060000000 -0.035000000 0.008333333
v 0.060000000 -0.035000000 0.025000000
v 0.060000000 -0.011666667 -0.025000000
v 0.060000000 -0.011666667 0.025000000
v 0.060000000 0.011666667 -0.025000000
v 0.060000000 0.011666667 0.025000000
v 0.060000000 0.035000000 -0.025000000
v 0.060000000 0.035000000 -0.008333333
v 0.060000000 0.035000000 0.008333333
v 0.060000000 0.035000000 0.025000000
v 0.100000000 -0.035000000 -0.025000000
v 0.100000000 -0.035000000 -0.008333333
v 0.100000000 -0.035000000 0.008333333
v 0.100000000 -0.035000000 0.025000000
v 0.100000000 -0.011666667 -0.025000000
v 0.100000000 -0.011666667 0.025000000
v 0.100000000 0.011666667 -0.025000000
v 0.100000000 0.011666667 0.025000000
v 0.100000000 0.035000000 -0.025000000
v 0.100000000 0.035000000 -0.008333333
v 0.100000000 0.035000000 0.008333333
v 0.100000000 0.035000000 0.025000000
v 0.140000000 -0.035000000 -0.025000000
v 0.140000000 -0.035000000 -0.008333333
v 0.140000000 -0.035000000 0.008333333
v 0.140000000 -0.035000000 0.025000000
v 0.140000000 -0.011666667 -0.025000000
v 0.140000000 -0.011666667 -0.008333333
v 0.140000000 -0.011666667 0.008333333
v 0.140000000 -0.011666667 0.025000000
v 0.140000000 0.011666667 -0.025000000
v 0.140000000 0.011666667 -0.008333333
v 0.140000000 0.011666667 0.008333333
v 0.140000000 0.011666667 0.025000000
v 0.140000000 0.035000000 -0.025000000
v 0.140000000 0.035000000 -0.008333333
v 0.140000000 0.035000000 0.008333333
v 0.140000000 0.035000000 0.025000000
f 1 5 21
f 1 21 17
f 4 20 22
f 4 22 8
f 5 9 23
f 5 23 21
f 8 22 24
f 8 24 12
f 9 13 25
f 9 25 23
f 12 24 28
f 12 28 16
f 17 21 33
f 17 33 29
f 20 32 34
f 20 34 22
f 21 23 35
f 21 35 33
f 22 34 36
f 22 36 24
f 23 25 37
f 23 37 35
f 24 36 40
f 24 40 28
f 29 33 45
f 29 45 41
f 32 44 46
f 32 46 34
f 33 35 47
f 33 47 45
f 34 46 48
f 34 48 36
f 35 37 49
f 35 49 47
f 36 48 52
f 36 52 40
f 41 45 57
f 41 57 53
f 44 56 58
f 44 58 46
f 45 47 59
f 45 59 57
f 46 58 60
f 46 60 48
f 47 49 61
f 47 61 59
f 48 60 64
f 48 64 52
f 53 57 69
f 53 69 65
f 56 68 70
f 56 70 58
f 57 59 71
f 57 71 69
f 58 70 72
f 58 72 60
f 59 61 73
f 59 73 71
f 60 72 76
f 60 76 64
f 65 69 81
f 65 81 77
f 68 80 82
f 68 82 70
f 69 71 83
f 69 83 81
f 70 82 84
f 70 84 72
f 71 73 85
f 71 85 83
f 72 84 88
f 72 88 76
f 77 81 93
f 77 93 89
f 80 92 96
f 80 96 82
f 81 83 97
f 81 97 93
f 82 96 100
f 82 100 84
f 83 85 101
f 83 101 97
f 84 100 104
f 84 104 88
f 1 17 18
f 1 18 2
f 13 14 26
f 13 26 25
f 2 18 19
f 2 19 3
f 14 15 27
f 14 27 26
f 3 19 20
f 3 20 4
f 15 16 28
f 15 28 27
f 17 29 30
f 17 30 18
f 25 26 38
f 25 38 37
f 18 30 31
f 18 31 19
f 26 27 39
f 26 39 38
f 19 31 32
f 19 32 20
f 27 28 40
f 27 40 39
f 29 41 42
f 29 42 30
f 37 38 50
f 37 50 49
f 30 42 43
f 30 43 31
f 38 39 51
f 38 51 50
f 31 43 44
f 31 44 32
f 39 40 52
f 39 52 51
f 41 53 54
f 41 54 42
f 49 50 62
f 49 62 61
f 42 54 55
f 42 55 43
f 50 51 63
f 50 63 62
f 43 55 56
f 43 56 44
f 51 52 64
f 51 64 63
f 53 65 66
f 53 66 54
f 61 62 74
f 61 74 73
f 54 66 67
f 54 67 55
f 62 63 75
f 62 75 74
f 55 67 68
f 55 68 56
f 63 64 76
f 63 76 75
f 65 77 78
f 65 78 66
f 73 74 86
f 73 86 85
f 66 78 79
f 66 79 67
f 74 75 87
f 74 87 86
f 67 79 80
f 67 80 68
f 75 76 88
f 75 88 87
f 77 89 90
f 77 90 78
f 85 86 102
f 85 102 101
f 78 90 91
f 78 91 79
f 86 87 103
f 86 103 102
f 79 91 92
f 79 92 80
f 87 88 104
f 87 104 103
f 1 2 6
f 1 6 5
f 89 93 94
f 89 94 90
f 2 3 7
f 2 7 6
f 90 94 95
f 90 95 91
f 3 4 8
f 3 8 7
f 91 95 96
f 91 96 92
f 5 6 10
f 5 10 9
f 93 97 98
f 93 98 94
f 6 7 11
f 6 11 10
f 94 98 99
f 94 99 95
f 7 8 12
f 7 12 11
f 95 99 100
f 95 100 96
f 9 10 14
f 9 14 13
f 97 101 102
f 97 102 98
f 10 11 15
f 10 15 14
f 98 102 103
f 98 103 99
f 11 12 16
f 11 16 15
f 99 103 104
f 99 104 100
